<?xml version="1.0" encoding="UTF-8" standalone="no"?>
<!-- Generator: Adobe Illustrator 19.0.0, SVG Export Plug-In . SVG Version: 6.00 Build 0)  -->

<svg
   xmlns:dc="http://purl.org/dc/elements/1.1/"
   xmlns:cc="http://creativecommons.org/ns#"
   xmlns:rdf="http://www.w3.org/1999/02/22-rdf-syntax-ns#"
   xmlns:svg="http://www.w3.org/2000/svg"
   xmlns="http://www.w3.org/2000/svg"
   xmlns:sodipodi="http://sodipodi.sourceforge.net/DTD/sodipodi-0.dtd"
   xmlns:inkscape="http://www.inkscape.org/namespaces/inkscape"
   version="1.1"
   id="Capa_1"
   x="0px"
   y="0px"
   viewBox="0 0 37.801 28.833"
   xml:space="preserve"
   width="512"
   height="390.53189"
   inkscape:version="0.91 r13725"
   sodipodi:docname="mail.svg"><metadata
     id="metadata59"><rdf:RDF><cc:Work
         rdf:about=""><dc:format>image/svg+xml</dc:format><dc:type
           rdf:resource="http://purl.org/dc/dcmitype/StillImage" /><dc:title></dc:title></cc:Work></rdf:RDF></metadata><defs
     id="defs57" /><sodipodi:namedview
     pagecolor="#ffffff"
     bordercolor="#666666"
     borderopacity="1"
     objecttolerance="10"
     gridtolerance="10"
     guidetolerance="10"
     inkscape:pageopacity="0"
     inkscape:pageshadow="2"
     inkscape:window-width="1280"
     inkscape:window-height="769"
     id="namedview55"
     showgrid="false"
     fit-margin-top="0"
     fit-margin-left="0"
     fit-margin-right="0"
     fit-margin-bottom="0"
     inkscape:zoom="0.4609375"
     inkscape:cx="256"
     inkscape:cy="195.26596"
     inkscape:window-x="0"
     inkscape:window-y="0"
     inkscape:window-maximized="1"
     inkscape:current-layer="Capa_1" /><g
     id="g3"
     transform="translate(0,-4.484)"><g
       id="g5"><g
         id="g7"><path
           d="m 25.109,28.298 c -0.123,0 -0.246,-0.045 -0.342,-0.136 l -5.754,-5.398 c -0.202,-0.188 -0.212,-0.505 -0.022,-0.706 0.188,-0.203 0.507,-0.211 0.706,-0.022 l 5.754,5.398 c 0.202,0.188 0.212,0.505 0.022,0.706 -0.097,0.105 -0.231,0.158 -0.364,0.158 z"
           id="path9"
           inkscape:connector-curvature="0"
           style="fill:#ffffff" /><path
           d="M 5.904,28.298 C 5.771,28.298 5.637,28.245 5.54,28.14 5.351,27.939 5.36,27.622 5.562,27.434 l 5.754,-5.4 c 0.199,-0.188 0.519,-0.181 0.706,0.022 0.189,0.201 0.18,0.518 -0.022,0.706 l -5.754,5.4 C 6.15,28.253 6.027,28.298 5.904,28.298 Z"
           id="path11"
           inkscape:connector-curvature="0"
           style="fill:#ffffff" /></g><path
         d="m 28.512,33.317 -26.012,0 C 1.121,33.317 0,32.196 0,30.817 L 0,13.769 c 0,-1.379 1.121,-2.5 2.5,-2.5 l 21.225,0 c 0.276,0 0.5,0.224 0.5,0.5 0,0.276 -0.224,0.5 -0.5,0.5 l -21.225,0 c -0.827,0 -1.5,0.673 -1.5,1.5 l 0,17.049 c 0,0.827 0.673,1.5 1.5,1.5 l 26.012,0 c 0.827,0 1.5,-0.673 1.5,-1.5 l 0,-12.262 c 0,-0.276 0.224,-0.5 0.5,-0.5 0.276,0 0.5,0.224 0.5,0.5 l 0,12.262 c 0,1.378 -1.121,2.499 -2.5,2.499 z"
         id="path13"
         inkscape:connector-curvature="0"
         style="fill:#ffffff" /><path
         d="m 15.512,24.806 c -0.667,0 -1.335,-0.222 -1.842,-0.664 L 0.877,12.988 C 0.668,12.806 0.647,12.491 0.828,12.283 1.01,12.072 1.325,12.052 1.533,12.234 l 12.793,11.153 c 0.642,0.558 1.723,0.56 2.364,0.004 l 8.529,-7.386 c 0.209,-0.181 0.524,-0.158 0.705,0.051 0.181,0.209 0.158,0.524 -0.051,0.705 l -8.529,7.386 c -0.505,0.439 -1.168,0.659 -1.832,0.659 z"
         id="path15"
         inkscape:connector-curvature="0"
         style="fill:#ffffff" /></g><g
       id="g17"><path
         d="m 30.514,19.056 c -4.02,0 -7.289,-3.269 -7.289,-7.285 0,-4.019 3.27,-7.287 7.289,-7.287 4.019,0 7.287,3.269 7.287,7.287 0,4.016 -3.269,7.285 -7.287,7.285 z m 0,-13.573 c -3.468,0 -6.289,2.82 -6.289,6.287 0,3.466 2.821,6.285 6.289,6.285 3.467,0 6.287,-2.819 6.287,-6.285 0,-3.466 -2.821,-6.287 -6.287,-6.287 z"
         id="path19"
         inkscape:connector-curvature="0"
         style="fill:#ffffff" /><path
         d="m 33.584,12.271 -6.016,0 c -0.276,0 -0.5,-0.224 -0.5,-0.5 0,-0.276 0.224,-0.5 0.5,-0.5 l 6.016,0 c 0.276,0 0.5,0.224 0.5,0.5 0,0.276 -0.224,0.5 -0.5,0.5 z"
         id="path21"
         inkscape:connector-curvature="0"
         style="fill:#ffffff" /><path
         d="m 30.576,15.278 c -0.276,0 -0.5,-0.224 -0.5,-0.5 l 0,-6.013 c 0,-0.276 0.224,-0.5 0.5,-0.5 0.276,0 0.5,0.224 0.5,0.5 l 0,6.014 c 0,0.276 -0.223,0.499 -0.5,0.499 z"
         id="path23"
         inkscape:connector-curvature="0"
         style="fill:#ffffff" /></g></g><g
     id="g25"
     transform="translate(0,-4.484)" /><g
     id="g27"
     transform="translate(0,-4.484)" /><g
     id="g29"
     transform="translate(0,-4.484)" /><g
     id="g31"
     transform="translate(0,-4.484)" /><g
     id="g33"
     transform="translate(0,-4.484)" /><g
     id="g35"
     transform="translate(0,-4.484)" /><g
     id="g37"
     transform="translate(0,-4.484)" /><g
     id="g39"
     transform="translate(0,-4.484)" /><g
     id="g41"
     transform="translate(0,-4.484)" /><g
     id="g43"
     transform="translate(0,-4.484)" /><g
     id="g45"
     transform="translate(0,-4.484)" /><g
     id="g47"
     transform="translate(0,-4.484)" /><g
     id="g49"
     transform="translate(0,-4.484)" /><g
     id="g51"
     transform="translate(0,-4.484)" /><g
     id="g53"
     transform="translate(0,-4.484)" /></svg>